<mxfile host="app.diagrams.net" modified="2021-02-01T07:20:43.040Z" agent="5.0 (Windows NT 10.0; Win64; x64) AppleWebKit/537.36 (KHTML, like Gecko) Chrome/87.0.4280.141 Safari/537.36" etag="KUYtIb8DDSfkrbz_UhIE" version="14.2.6" type="github">
  <diagram id="7M78F7beRaEai-EgFbSg" name="lib_disease">
    <mxGraphModel dx="1038" dy="580" grid="1" gridSize="10" guides="1" tooltips="1" connect="1" arrows="1" fold="1" page="1" pageScale="1" pageWidth="827" pageHeight="1169" math="0" shadow="0">
      <root>
        <mxCell id="0" />
        <mxCell id="1" parent="0" />
        <mxCell id="ubJckjuYiZ8Vcr8HQS5A-32" style="edgeStyle=orthogonalEdgeStyle;rounded=0;orthogonalLoop=1;jettySize=auto;html=1;exitX=0.5;exitY=1;exitDx=0;exitDy=0;" edge="1" parent="1" source="ubJckjuYiZ8Vcr8HQS5A-30" target="ubJckjuYiZ8Vcr8HQS5A-31">
          <mxGeometry relative="1" as="geometry" />
        </mxCell>
        <mxCell id="ubJckjuYiZ8Vcr8HQS5A-30" value="" style="rounded=0;whiteSpace=wrap;html=1;fillColor=#f8cecc;strokeColor=#b85450;" vertex="1" parent="1">
          <mxGeometry x="20" y="190" width="160" height="230" as="geometry" />
        </mxCell>
        <mxCell id="ubJckjuYiZ8Vcr8HQS5A-7" style="edgeStyle=orthogonalEdgeStyle;rounded=0;orthogonalLoop=1;jettySize=auto;html=1;exitX=1;exitY=0.5;exitDx=0;exitDy=0;entryX=0;entryY=0.5;entryDx=0;entryDy=0;" edge="1" parent="1" source="ubJckjuYiZ8Vcr8HQS5A-1" target="ubJckjuYiZ8Vcr8HQS5A-5">
          <mxGeometry relative="1" as="geometry" />
        </mxCell>
        <mxCell id="ubJckjuYiZ8Vcr8HQS5A-1" value="医保" style="rounded=0;whiteSpace=wrap;html=1;" vertex="1" parent="1">
          <mxGeometry x="40" y="210" width="80" height="30" as="geometry" />
        </mxCell>
        <mxCell id="ubJckjuYiZ8Vcr8HQS5A-12" style="edgeStyle=orthogonalEdgeStyle;rounded=0;orthogonalLoop=1;jettySize=auto;html=1;exitX=1;exitY=0.5;exitDx=0;exitDy=0;entryX=0;entryY=0.5;entryDx=0;entryDy=0;" edge="1" parent="1" source="ubJckjuYiZ8Vcr8HQS5A-2" target="ubJckjuYiZ8Vcr8HQS5A-5">
          <mxGeometry relative="1" as="geometry" />
        </mxCell>
        <mxCell id="ubJckjuYiZ8Vcr8HQS5A-2" value="门诊" style="rounded=0;whiteSpace=wrap;html=1;" vertex="1" parent="1">
          <mxGeometry x="40" y="260" width="80" height="30" as="geometry" />
        </mxCell>
        <mxCell id="ubJckjuYiZ8Vcr8HQS5A-9" style="edgeStyle=orthogonalEdgeStyle;rounded=0;orthogonalLoop=1;jettySize=auto;html=1;exitX=1;exitY=0.5;exitDx=0;exitDy=0;entryX=0;entryY=0.75;entryDx=0;entryDy=0;" edge="1" parent="1" source="ubJckjuYiZ8Vcr8HQS5A-3" target="ubJckjuYiZ8Vcr8HQS5A-5">
          <mxGeometry relative="1" as="geometry" />
        </mxCell>
        <mxCell id="ubJckjuYiZ8Vcr8HQS5A-3" value="住院" style="rounded=0;whiteSpace=wrap;html=1;" vertex="1" parent="1">
          <mxGeometry x="40" y="310" width="80" height="30" as="geometry" />
        </mxCell>
        <mxCell id="ubJckjuYiZ8Vcr8HQS5A-13" style="edgeStyle=orthogonalEdgeStyle;rounded=0;orthogonalLoop=1;jettySize=auto;html=1;exitX=1;exitY=0.5;exitDx=0;exitDy=0;entryX=0;entryY=0.5;entryDx=0;entryDy=0;" edge="1" parent="1" source="ubJckjuYiZ8Vcr8HQS5A-4" target="ubJckjuYiZ8Vcr8HQS5A-5">
          <mxGeometry relative="1" as="geometry" />
        </mxCell>
        <mxCell id="ubJckjuYiZ8Vcr8HQS5A-4" value="其他" style="rounded=0;whiteSpace=wrap;html=1;" vertex="1" parent="1">
          <mxGeometry x="40" y="360" width="80" height="30" as="geometry" />
        </mxCell>
        <mxCell id="ubJckjuYiZ8Vcr8HQS5A-15" style="edgeStyle=orthogonalEdgeStyle;rounded=0;orthogonalLoop=1;jettySize=auto;html=1;exitX=1;exitY=0.5;exitDx=0;exitDy=0;" edge="1" parent="1" source="ubJckjuYiZ8Vcr8HQS5A-5" target="ubJckjuYiZ8Vcr8HQS5A-14">
          <mxGeometry relative="1" as="geometry" />
        </mxCell>
        <mxCell id="ubJckjuYiZ8Vcr8HQS5A-16" value="17个地市" style="edgeLabel;html=1;align=center;verticalAlign=middle;resizable=0;points=[];" vertex="1" connectable="0" parent="ubJckjuYiZ8Vcr8HQS5A-15">
          <mxGeometry x="-0.224" y="1" relative="1" as="geometry">
            <mxPoint as="offset" />
          </mxGeometry>
        </mxCell>
        <mxCell id="ubJckjuYiZ8Vcr8HQS5A-5" value="抽取疾病信息&lt;br&gt;lib_disease" style="rounded=0;whiteSpace=wrap;html=1;" vertex="1" parent="1">
          <mxGeometry x="210" y="280" width="120" height="40" as="geometry" />
        </mxCell>
        <mxCell id="ubJckjuYiZ8Vcr8HQS5A-18" style="edgeStyle=orthogonalEdgeStyle;rounded=0;orthogonalLoop=1;jettySize=auto;html=1;exitX=1;exitY=0.5;exitDx=0;exitDy=0;entryX=0;entryY=0.5;entryDx=0;entryDy=0;" edge="1" parent="1" source="ubJckjuYiZ8Vcr8HQS5A-14" target="ubJckjuYiZ8Vcr8HQS5A-17">
          <mxGeometry relative="1" as="geometry" />
        </mxCell>
        <mxCell id="ubJckjuYiZ8Vcr8HQS5A-14" value="疾病名称和编码去重生成新表&lt;br&gt;dic_disease" style="rounded=0;whiteSpace=wrap;html=1;" vertex="1" parent="1">
          <mxGeometry x="430" y="265" width="120" height="70" as="geometry" />
        </mxCell>
        <mxCell id="ubJckjuYiZ8Vcr8HQS5A-24" style="edgeStyle=orthogonalEdgeStyle;rounded=0;orthogonalLoop=1;jettySize=auto;html=1;exitX=0.5;exitY=1;exitDx=0;exitDy=0;entryX=1;entryY=0.5;entryDx=0;entryDy=0;" edge="1" parent="1" source="ubJckjuYiZ8Vcr8HQS5A-17" target="ubJckjuYiZ8Vcr8HQS5A-23">
          <mxGeometry relative="1" as="geometry" />
        </mxCell>
        <mxCell id="ubJckjuYiZ8Vcr8HQS5A-17" value="通过各种手段标化其中的两个字段&lt;br&gt;STCODE\STNAME" style="rounded=0;whiteSpace=wrap;html=1;" vertex="1" parent="1">
          <mxGeometry x="620" y="262.5" width="110" height="75" as="geometry" />
        </mxCell>
        <mxCell id="ubJckjuYiZ8Vcr8HQS5A-22" style="edgeStyle=orthogonalEdgeStyle;rounded=0;orthogonalLoop=1;jettySize=auto;html=1;exitX=0.5;exitY=1;exitDx=0;exitDy=0;" edge="1" parent="1" source="ubJckjuYiZ8Vcr8HQS5A-19" target="ubJckjuYiZ8Vcr8HQS5A-17">
          <mxGeometry relative="1" as="geometry" />
        </mxCell>
        <mxCell id="ubJckjuYiZ8Vcr8HQS5A-19" value="根据自定义的疾病分类表标化JBCLASS" style="rounded=0;whiteSpace=wrap;html=1;fillColor=#fff2cc;strokeColor=#d6b656;" vertex="1" parent="1">
          <mxGeometry x="615" y="160" width="120" height="40" as="geometry" />
        </mxCell>
        <mxCell id="ubJckjuYiZ8Vcr8HQS5A-21" style="edgeStyle=orthogonalEdgeStyle;rounded=0;orthogonalLoop=1;jettySize=auto;html=1;exitX=1;exitY=0.5;exitDx=0;exitDy=0;entryX=0;entryY=0.5;entryDx=0;entryDy=0;" edge="1" parent="1" source="ubJckjuYiZ8Vcr8HQS5A-20" target="ubJckjuYiZ8Vcr8HQS5A-19">
          <mxGeometry relative="1" as="geometry" />
        </mxCell>
        <mxCell id="ubJckjuYiZ8Vcr8HQS5A-20" value="lib_disease_class" style="rounded=0;whiteSpace=wrap;html=1;" vertex="1" parent="1">
          <mxGeometry x="430" y="160" width="120" height="40" as="geometry" />
        </mxCell>
        <mxCell id="ubJckjuYiZ8Vcr8HQS5A-25" style="edgeStyle=orthogonalEdgeStyle;rounded=0;orthogonalLoop=1;jettySize=auto;html=1;exitX=0;exitY=0.5;exitDx=0;exitDy=0;" edge="1" parent="1" source="ubJckjuYiZ8Vcr8HQS5A-23" target="ubJckjuYiZ8Vcr8HQS5A-5">
          <mxGeometry relative="1" as="geometry" />
        </mxCell>
        <mxCell id="ubJckjuYiZ8Vcr8HQS5A-23" value="标化后的三个字段维护到原始库" style="rounded=0;whiteSpace=wrap;html=1;" vertex="1" parent="1">
          <mxGeometry x="440" y="410" width="120" height="40" as="geometry" />
        </mxCell>
        <mxCell id="ubJckjuYiZ8Vcr8HQS5A-27" style="edgeStyle=orthogonalEdgeStyle;rounded=0;orthogonalLoop=1;jettySize=auto;html=1;exitX=0.5;exitY=1;exitDx=0;exitDy=0;entryX=0.5;entryY=0;entryDx=0;entryDy=0;" edge="1" parent="1" source="ubJckjuYiZ8Vcr8HQS5A-26" target="ubJckjuYiZ8Vcr8HQS5A-19">
          <mxGeometry relative="1" as="geometry" />
        </mxCell>
        <mxCell id="ubJckjuYiZ8Vcr8HQS5A-26" value="此处使用的ICD编码" style="rounded=0;whiteSpace=wrap;html=1;" vertex="1" parent="1">
          <mxGeometry x="615" y="80" width="120" height="40" as="geometry" />
        </mxCell>
        <mxCell id="ubJckjuYiZ8Vcr8HQS5A-29" style="edgeStyle=orthogonalEdgeStyle;rounded=0;orthogonalLoop=1;jettySize=auto;html=1;exitX=0.5;exitY=1;exitDx=0;exitDy=0;" edge="1" parent="1" source="ubJckjuYiZ8Vcr8HQS5A-28" target="ubJckjuYiZ8Vcr8HQS5A-5">
          <mxGeometry relative="1" as="geometry" />
        </mxCell>
        <mxCell id="ubJckjuYiZ8Vcr8HQS5A-28" value="由于安全考虑对stcode\stname进行了加密处理,heze.Encrypt_Des(ST_CODE,密码)&lt;br&gt;" style="rounded=0;whiteSpace=wrap;html=1;fillColor=#d5e8d4;strokeColor=#82b366;" vertex="1" parent="1">
          <mxGeometry x="135" y="70" width="270" height="70" as="geometry" />
        </mxCell>
        <mxCell id="ubJckjuYiZ8Vcr8HQS5A-31" value="&lt;span style=&quot;font-family: &amp;#34;tahoma&amp;#34; , &amp;#34;arial&amp;#34; , &amp;#34;verdana&amp;#34; , sans-serif ; background-color: rgb(255 , 255 , 255)&quot;&gt;ILLSQL&amp;nbsp;&lt;/span&gt;" style="rounded=0;whiteSpace=wrap;html=1;" vertex="1" parent="1">
          <mxGeometry x="35" y="470" width="130" height="30" as="geometry" />
        </mxCell>
      </root>
    </mxGraphModel>
  </diagram>
</mxfile>
